<?xml version="1.0" ?><svg id="Слой_1" style="enable-background:new 0 0 200 200;" version="1.1" viewBox="0 0 200 200" xml:space="preserve" xmlns="http://www.w3.org/2000/svg" xmlns:xlink="http://www.w3.org/1999/xlink"><style type="text/css">
	.st0{fill:url(#SVGID_1_);}
	.st1{fill:url(#SVGID_2_);}
	.st2{fill:url(#SVGID_3_);}
	.st3{fill:url(#SVGID_4_);}
	.st4{fill:url(#SVGID_5_);}
</style><g><linearGradient gradientUnits="userSpaceOnUse" id="SVGID_1_" x1="177.5621" x2="188.5099" y1="107.3212" y2="107.3212"><stop offset="0" style="stop-color:#9aea38"/><stop offset="1" style="stop-color:#1db909"/></linearGradient><circle class="st0" cx="183" cy="107.3" r="5.5"/><linearGradient gradientUnits="userSpaceOnUse" id="SVGID_2_" x1="126.5514" x2="141.5532" y1="32.7733" y2="32.7733"><stop offset="0" style="stop-color:#9aea38"/><stop offset="1" style="stop-color:#1db909"/></linearGradient><circle class="st1" cx="134.1" cy="32.8" r="7.5"/><linearGradient gradientUnits="userSpaceOnUse" id="SVGID_3_" x1="20.8354" x2="38.867" y1="139.3564" y2="139.3564"><stop offset="0" style="stop-color:#9aea38"/><stop offset="1" style="stop-color:#1db909"/></linearGradient><circle class="st2" cx="29.9" cy="139.4" r="9"/><g><linearGradient gradientUnits="userSpaceOnUse" id="SVGID_4_" x1="82.3644" x2="158.0116" y1="101.678" y2="101.678"><stop offset="0" style="stop-color:#9aea38"/><stop offset="1" style="stop-color:#1db909"/></linearGradient><path class="st3" d="M129.9,89.3c-9.2,0-11.9,8.8-12.8,14v0.3l-1.2,4.9c4,3.4,8.8,5.5,13.7,5.5c6.4,0,12.2-5.5,12.5-12.5    C142.1,94.8,136.6,89.3,129.9,89.3z"/><linearGradient gradientUnits="userSpaceOnUse" id="SVGID_5_" x1="11.49" x2="180.3969" y1="100" y2="100"><stop offset="0" style="stop-color:#9aea38"/><stop offset="1" style="stop-color:#1db909"/></linearGradient><path class="st4" d="M171.3,93.4c2.5-2.2,4.6-4.9,6.2-8.1c5.7-11.1,2.8-25-6.9-32.9c-7-5.7-15.7-7.3-23.5-5.4    c-10.1,2.4-20.7-1.4-27.4-9.3c-4.5-5.3-10-9.9-16.5-13.6C75,8,39.6,16.5,21.7,43.6c-18.9,28.6-10.7,67.1,18,85.6l0.1,0.1    c5.4,3.4,8.3,9.6,7.6,16C46,158,51.7,171,63.2,178.4c10.8,6.9,23.4,7.4,34.1,2c9.9-5,20.9-7.4,32-6.9c14.6,0.7,30-6.5,38.5-19.8    c8.8-13.7,8.7-30.8,1-44.2C165.8,104.2,166.6,97.4,171.3,93.4z M129.6,126.5c-6.4,0-11.9-1.8-16.8-4.9l-5.5,25.9H94.8l7.6-35.7    c-3.4-4.6-6.4-9.8-8.8-14.6v5.5c0,13.4-10.7,24.1-23.8,24.1S46,116.2,46,102.7V70.4h12.2v32.3c0,6.4,5.2,11.6,11.6,11.6    s11.6-5.2,11.6-11.6V70.4h12.2c2.4,8.2,6.7,18,12.2,26.5c3.4-12.2,12.2-19.8,23.8-19.8c13.4,0,24.4,11,24.4,24.4    C154,115.6,143,126.5,129.6,126.5z"/></g></g></svg>